<?xml version="1.0" encoding="UTF-8"?> <svg xmlns="http://www.w3.org/2000/svg" id="yellow" width="530.812" height="146.844" viewBox="0 0 530.812 146.844"><defs><style> .cls-1 { fill: #fd972e; } .cls-1, .cls-2 { fill-rule: evenodd; } .cls-2 { fill: #ffffff; } </style></defs><path id="Shape_1_copy" data-name="Shape 1 copy" class="cls-1" d="M143.474,51.4h0ZM132.149,55l11.242-3.56a72.8,72.8,0,0,1,.186,44.283L132.491,92.2a62.253,62.253,0,0,1-4.074,9.776l10.373,5.392a73.057,73.057,0,0,1-31.4,31.36l-5.376-10.386a62.229,62.229,0,0,1-9.848,4.065l3.47,10.952-0.029.01a73.045,73.045,0,0,1-44.313.079l3.526-11.064a62.257,62.257,0,0,1-9.785-4.061L39.648,138.7A73.044,73.044,0,0,1,8.265,107.33l10.411-5.387a62.25,62.25,0,0,1-4.047-9.906L3.752,95.461h0C-0.514,80.943-1.009,65.7,3.576,51.243L14.561,54.79a62.139,62.139,0,0,1,4.057-9.78L8.234,39.628A73.051,73.051,0,0,1,39.6,8.235l5.387,10.381a62.255,62.255,0,0,1,9.844-4.073L51.366,3.587,51.45,3.56l-0.032-.1A72.888,72.888,0,0,1,95.671,3.42l-3.53,11.1a62.031,62.031,0,0,1,9.8,4.06l5.348-10.373a72.956,72.956,0,0,1,31.364,31.349l-10.438,5.424A44.586,44.586,0,0,1,132.149,55h0Zm-4.991,1.544a56.236,56.236,0,1,0-36.7,70.518A56.249,56.249,0,0,0,127.158,56.547ZM23.359,87.966h8.973V54.287h2.559V87.966h2.559V84.555h4.573l0.674-24.3H41.716V55.139h1.111l0.286-10.232h-1.4V41.071h1.507l0.065-2.984h5.017l0.065,2.984h1.024v3.837H48.481l0.286,10.232h1.054v5.116H48.9l0.673,24.3h2.823l0.674-24.3H52.38V55.139H53.2l0.286-10.232h-1.1V41.071h1.213l0.065-2.984h5.018l0.064,2.984h1.319v3.837H58.85l0.286,10.232h1.348v5.116H59.266l0.24,7.674h5.672V66.86a4.058,4.058,0,0,1,4.036-4.179,3.238,3.238,0,0,1,2.362.841v-3.85a5.429,5.429,0,0,1,10.8-.7h6.085c0.343-3.837.554-7.674,0.554-12.363h10.9c0,4.69.212,8.526,0.555,12.363h14.616v28.99h8.571A52.188,52.188,0,0,1,23.359,87.966Zm88.314-17.053h-9.582c1.061,5.969,2.267,10.232,3.018,13.642h4.431v3.411h2.133V70.913Zm-10.934-9.379c0.26,2.558.567,4.69,0.9,6.395h10.033V61.534H100.739ZM82.667,67.929h4.628c0.332-1.705.64-3.837,0.9-6.395H82.667v6.395Zm0,16.627h1.158c0.751-3.411,1.957-7.674,3.018-13.642H82.667V84.555ZM59.58,70.913l0.36,13.642h5.238V70.913h-5.6Z" transform="translate(-0.344)"></path><path id="Tectxon" class="cls-2" d="M201.472,120H218.64V38.684h14.616V26.04H186.508V38.684h14.964V120Zm59.044,1.044q10.206,0,15.428-5.394t5.22-15.718v-4.64H266.316v5.684q0,4.41-1.334,6.554a4.728,4.728,0,0,1-4.35,2.146,5.085,5.085,0,0,1-4.582-2.2q-1.452-2.2-1.45-7.076V87.172h26.68V77.544q0-12.876-4.7-19.256t-16.066-6.38q-11.022,0-16.3,6.148T238.94,76.5V96.452q0,12.18,5.22,18.386t16.356,6.206h0ZM254.6,79.4V74.76q0-6.612,1.276-9.048t4.64-2.436q3.246,0,4.524,2.262t1.276,7.482V79.4H254.6Zm58.58,41.644q10.554,0,15.544-5.336t4.988-15.66v-6.38H318.864v7.192q0,4.758-1.16,6.9t-4.408,2.146a4.733,4.733,0,0,1-4.466-2.32Q307.5,105.269,307.5,99V74.412q0-6.5,1.218-8.932t4.582-2.436q3.132,0,4.35,1.972t1.218,7.192v5.916h14.848V72.556q0-10.44-4.93-15.544t-15.6-5.1q-11.253,0-16.356,6.264t-5.1,18.212V96.568q0,11.832,5.1,18.154t16.356,6.322h0Zm51.388-.232A58.784,58.784,0,0,0,374.66,120V107.82a21.65,21.65,0,0,1-4.872.464,6.108,6.108,0,0,1-4.582-1.508q-1.452-1.506-1.45-4.872V63.276h10.092V52.952H363.756V32.884H347.864V52.952h-6.728V63.276h6.728V103.3q0,8.7,3.77,13.108t12.934,4.408h0ZM379.88,120h13.688l7.888-20.532,9.4,20.532H426.4L411.084,86.128l14.268-33.176H411.9l-7.424,18.56-8.584-18.56H380.46L394.5,83.924Zm74.356,1.044q10.788,0,16.182-5.974t5.394-17.342v-22.5q0-11.367-5.394-17.342t-16.182-5.974q-10.788,0-16.124,5.974t-5.336,17.342v22.5q0,11.37,5.336,17.342t16.124,5.974h0Zm0.116-10.9q-3.714,0-4.872-2.842a23.334,23.334,0,0,1-1.16-8.41V74.18a23.841,23.841,0,0,1,1.16-8.468q1.158-2.9,4.872-2.9,3.594,0,4.756,2.9a23.887,23.887,0,0,1,1.16,8.468V98.888a23.379,23.379,0,0,1-1.16,8.41q-1.161,2.844-4.756,2.842h0ZM487.76,120h15.776V66.756q4.524-3.246,7.308-3.248a3.911,3.911,0,0,1,3.538,1.508,8.921,8.921,0,0,1,.986,4.756V120h15.776V66.64A18.366,18.366,0,0,0,528.3,56.084q-2.844-4.176-8.526-4.176-8.238,0-16.24,7.656V52.952H487.76V120Z" transform="translate(-0.344)"></path></svg> 