<svg xmlns="http://www.w3.org/2000/svg" xmlns:xlink="http://www.w3.org/1999/xlink" width="500" zoomAndPan="magnify" viewBox="0 0 375 374.999991" height="500" preserveAspectRatio="xMidYMid meet" version="1.0"><defs><g/><clipPath id="b9de95794a"><path d="M 157.035156 155.523438 L 200 155.523438 L 200 198.273438 L 157.035156 198.273438 Z M 157.035156 155.523438 " clip-rule="nonzero"/></clipPath></defs><g clip-path="url(#b9de95794a)"><path fill="#fd972e" d="M 198.941406 170.488281 Z M 195.632812 171.535156 L 198.914062 170.5 C 199.597656 172.59375 199.941406 174.742188 199.949219 176.941406 C 199.960938 179.144531 199.632812 181.292969 198.96875 183.390625 L 195.730469 182.367188 C 195.414062 183.347656 195.019531 184.296875 194.542969 185.210938 L 197.570312 186.78125 C 196.554688 188.742188 195.261719 190.5 193.699219 192.058594 C 192.132812 193.617188 190.363281 194.902344 188.398438 195.910156 L 186.828125 192.886719 C 185.902344 193.363281 184.945312 193.757812 183.949219 194.070312 L 184.964844 197.261719 L 184.957031 197.261719 C 182.851562 197.933594 180.695312 198.273438 178.484375 198.277344 C 176.277344 198.28125 174.117188 197.949219 172.011719 197.285156 L 173.039062 194.066406 C 172.054688 193.75 171.101562 193.359375 170.183594 192.882812 L 168.609375 195.902344 C 166.640625 194.890625 164.875 193.605469 163.3125 192.046875 C 161.746094 190.488281 160.457031 188.730469 159.441406 186.769531 L 162.480469 185.203125 C 162.003906 184.273438 161.609375 183.3125 161.300781 182.320312 L 158.121094 183.316406 C 156.875 179.089844 156.730469 174.652344 158.070312 170.441406 L 161.28125 171.476562 C 161.59375 170.492188 161.988281 169.542969 162.464844 168.628906 L 159.429688 167.0625 C 160.445312 165.101562 161.734375 163.339844 163.300781 161.78125 C 164.863281 160.222656 166.628906 158.933594 168.59375 157.921875 L 170.167969 160.945312 C 171.09375 160.46875 172.050781 160.070312 173.042969 159.757812 L 172.03125 156.570312 L 172.054688 156.5625 L 172.046875 156.53125 C 174.148438 155.863281 176.304688 155.527344 178.511719 155.523438 C 180.714844 155.523438 182.871094 155.855469 184.976562 156.519531 L 183.945312 159.75 C 184.933594 160.0625 185.886719 160.457031 186.804688 160.933594 L 188.367188 157.914062 C 190.335938 158.925781 192.097656 160.207031 193.664062 161.765625 C 195.226562 163.324219 196.515625 165.082031 197.53125 167.039062 L 194.480469 168.621094 C 194.984375 169.546875 195.367188 170.519531 195.632812 171.535156 Z M 194.171875 171.984375 C 194.011719 171.472656 193.824219 170.972656 193.613281 170.480469 C 193.402344 169.984375 193.167969 169.503906 192.910156 169.035156 C 192.652344 168.5625 192.371094 168.105469 192.066406 167.664062 C 191.761719 167.222656 191.4375 166.792969 191.089844 166.382812 C 190.746094 165.972656 190.378906 165.578125 189.996094 165.203125 C 189.609375 164.828125 189.207031 164.472656 188.789062 164.136719 C 188.371094 163.800781 187.933594 163.488281 187.484375 163.195312 C 187.03125 162.902344 186.570312 162.632812 186.09375 162.382812 C 185.613281 162.136719 185.125 161.910156 184.625 161.710938 C 184.128906 161.511719 183.621094 161.335938 183.101562 161.1875 C 182.585938 161.035156 182.0625 160.914062 181.535156 160.8125 C 181.003906 160.714844 180.472656 160.640625 179.9375 160.59375 C 179.402344 160.546875 178.863281 160.527344 178.324219 160.535156 C 177.789062 160.539062 177.25 160.570312 176.714844 160.628906 C 176.179688 160.6875 175.648438 160.773438 175.125 160.882812 C 174.597656 160.992188 174.078125 161.128906 173.5625 161.289062 C 173.050781 161.453125 172.546875 161.636719 172.050781 161.847656 C 171.554688 162.058594 171.074219 162.292969 170.601562 162.550781 C 170.128906 162.808594 169.671875 163.089844 169.226562 163.390625 C 168.785156 163.695312 168.355469 164.019531 167.941406 164.363281 C 167.53125 164.707031 167.136719 165.070312 166.761719 165.457031 C 166.382812 165.839844 166.027344 166.238281 165.691406 166.65625 C 165.351562 167.074219 165.039062 167.507812 164.742188 167.957031 C 164.449219 168.40625 164.179688 168.871094 163.929688 169.347656 C 163.683594 169.820312 163.457031 170.308594 163.257812 170.804688 C 163.054688 171.304688 162.882812 171.808594 162.730469 172.324219 C 162.578125 172.839844 162.453125 173.359375 162.355469 173.886719 C 162.257812 174.414062 162.183594 174.945312 162.136719 175.480469 C 162.089844 176.015625 162.070312 176.550781 162.074219 177.085938 C 162.082031 177.621094 162.113281 178.15625 162.171875 178.691406 C 162.230469 179.222656 162.316406 179.75 162.425781 180.277344 C 162.539062 180.800781 162.675781 181.320312 162.835938 181.832031 C 163 182.34375 163.183594 182.84375 163.394531 183.339844 C 163.609375 183.832031 163.84375 184.3125 164.101562 184.78125 C 164.359375 185.253906 164.644531 185.710938 164.945312 186.152344 C 165.25 186.59375 165.574219 187.019531 165.921875 187.429688 C 166.269531 187.84375 166.632812 188.234375 167.019531 188.609375 C 167.402344 188.984375 167.804688 189.339844 168.226562 189.675781 C 168.644531 190.011719 169.078125 190.324219 169.53125 190.617188 C 169.980469 190.910156 170.445312 191.179688 170.921875 191.429688 C 171.402344 191.675781 171.890625 191.898438 172.386719 192.097656 C 172.886719 192.300781 173.394531 192.472656 173.914062 192.625 C 174.429688 192.773438 174.953125 192.898438 175.480469 192.996094 C 176.011719 193.09375 176.542969 193.167969 177.078125 193.214844 C 177.613281 193.261719 178.152344 193.28125 178.691406 193.273438 C 179.226562 193.269531 179.765625 193.238281 180.300781 193.175781 C 180.835938 193.117188 181.367188 193.035156 181.890625 192.921875 C 182.417969 192.8125 182.9375 192.675781 183.453125 192.515625 C 183.964844 192.355469 184.46875 192.167969 184.960938 191.957031 C 185.457031 191.746094 185.941406 191.511719 186.410156 191.253906 C 186.882812 190.996094 187.339844 190.714844 187.785156 190.414062 C 188.226562 190.109375 188.65625 189.785156 189.066406 189.441406 C 189.476562 189.097656 189.871094 188.734375 190.246094 188.351562 C 190.625 187.96875 190.980469 187.566406 191.316406 187.148438 C 191.652344 186.730469 191.96875 186.296875 192.261719 185.847656 C 192.554688 185.398438 192.828125 184.9375 193.074219 184.460938 C 193.324219 183.988281 193.546875 183.5 193.746094 183.003906 C 193.949219 182.503906 194.125 182 194.273438 181.484375 C 194.425781 180.972656 194.550781 180.449219 194.648438 179.921875 C 194.746094 179.398438 194.820312 178.867188 194.867188 178.332031 C 194.914062 177.800781 194.9375 177.265625 194.929688 176.730469 C 194.925781 176.191406 194.890625 175.660156 194.835938 175.125 C 194.777344 174.59375 194.691406 174.066406 194.582031 173.539062 C 194.46875 173.015625 194.335938 172.496094 194.171875 171.988281 Z M 163.851562 181.132812 L 166.472656 181.132812 L 166.472656 171.328125 L 167.21875 171.328125 L 167.21875 181.132812 L 167.964844 181.132812 L 167.964844 180.140625 L 169.300781 180.140625 L 169.5 173.066406 L 169.210938 173.066406 L 169.210938 171.578125 L 169.535156 171.578125 L 169.621094 168.597656 L 169.210938 168.597656 L 169.210938 167.480469 L 169.652344 167.480469 L 169.671875 166.613281 L 171.136719 166.613281 L 171.15625 167.480469 L 171.453125 167.480469 L 171.453125 168.597656 L 171.1875 168.597656 L 171.273438 171.578125 L 171.582031 171.578125 L 171.582031 173.066406 L 171.3125 173.066406 L 171.507812 180.140625 L 172.332031 180.140625 L 172.53125 173.066406 L 172.328125 173.066406 L 172.328125 171.578125 L 172.566406 171.578125 L 172.652344 168.597656 L 172.328125 168.597656 L 172.328125 167.480469 L 172.683594 167.480469 L 172.703125 166.613281 L 174.167969 166.613281 L 174.1875 167.480469 L 174.574219 167.480469 L 174.574219 168.597656 L 174.21875 168.597656 L 174.300781 171.578125 L 174.695312 171.578125 L 174.695312 173.066406 L 174.339844 173.066406 L 174.410156 175.300781 L 176.066406 175.300781 L 176.066406 174.988281 C 176.0625 174.832031 176.089844 174.675781 176.144531 174.527344 C 176.203125 174.378906 176.289062 174.246094 176.398438 174.132812 C 176.511719 174.019531 176.640625 173.929688 176.785156 173.867188 C 176.933594 173.804688 177.085938 173.773438 177.246094 173.773438 C 177.511719 173.757812 177.738281 173.839844 177.9375 174.015625 L 177.9375 172.898438 C 177.9375 172.699219 177.976562 172.507812 178.054688 172.324219 C 178.128906 172.140625 178.234375 171.976562 178.371094 171.832031 C 178.511719 171.6875 178.667969 171.574219 178.851562 171.488281 C 179.03125 171.40625 179.21875 171.359375 179.417969 171.34375 C 179.617188 171.332031 179.8125 171.355469 180.003906 171.414062 C 180.191406 171.476562 180.363281 171.566406 180.519531 171.691406 C 180.675781 171.816406 180.800781 171.96875 180.898438 172.140625 C 181 172.3125 181.0625 172.496094 181.089844 172.691406 L 182.867188 172.691406 C 182.96875 171.574219 183.03125 170.457031 183.03125 169.09375 L 186.214844 169.09375 C 186.214844 170.460938 186.277344 171.574219 186.375 172.691406 L 190.648438 172.691406 L 190.648438 181.132812 L 193.152344 181.132812 C 192.921875 181.917969 192.632812 182.683594 192.28125 183.421875 C 191.929688 184.164062 191.523438 184.871094 191.058594 185.542969 C 190.589844 186.21875 190.074219 186.851562 189.503906 187.441406 C 188.9375 188.03125 188.324219 188.574219 187.667969 189.066406 C 187.011719 189.558594 186.320312 189.996094 185.59375 190.375 C 184.867188 190.757812 184.113281 191.078125 183.332031 191.335938 C 182.554688 191.597656 181.757812 191.792969 180.949219 191.921875 C 180.136719 192.054688 179.320312 192.121094 178.5 192.121094 C 177.679688 192.121094 176.863281 192.054688 176.050781 191.925781 C 175.242188 191.792969 174.445312 191.597656 173.667969 191.335938 C 172.886719 191.078125 172.132812 190.757812 171.40625 190.378906 C 170.679688 189.996094 169.988281 189.558594 169.332031 189.066406 C 168.675781 188.574219 168.0625 188.035156 167.496094 187.441406 C 166.925781 186.851562 166.410156 186.21875 165.941406 185.546875 C 165.476562 184.871094 165.070312 184.164062 164.71875 183.421875 C 164.367188 182.683594 164.078125 181.921875 163.851562 181.132812 Z M 189.648438 176.167969 L 186.851562 176.167969 C 187.160156 177.90625 187.511719 179.148438 187.730469 180.140625 L 189.027344 180.140625 L 189.027344 181.132812 L 189.648438 181.132812 Z M 186.457031 173.4375 C 186.53125 174.183594 186.621094 174.804688 186.71875 175.300781 L 189.648438 175.300781 L 189.648438 173.4375 Z M 181.175781 175.300781 L 182.527344 175.300781 C 182.625 174.804688 182.714844 174.183594 182.789062 173.4375 L 181.175781 173.4375 Z M 181.175781 180.140625 L 181.515625 180.140625 C 181.734375 179.148438 182.085938 177.90625 182.394531 176.167969 L 181.175781 176.167969 Z M 174.429688 176.167969 L 174.535156 180.140625 L 176.066406 180.140625 L 176.066406 176.167969 Z M 174.429688 176.167969 " fill-opacity="1" fill-rule="evenodd"/></g><g fill="#ffffff" fill-opacity="1"><g transform="translate(65.641279, 214.702164)"><g><path d="M 15.515625 0 L 11.59375 0 L 10.71875 -1.515625 L 4.890625 -1.515625 L 4.03125 0 L 0.09375 0 L 6 -9.234375 L 9.609375 -9.234375 Z M 9.421875 -3.796875 L 7.8125 -6.59375 L 6.203125 -3.796875 Z M 9.421875 -3.796875 "/></g></g></g><g fill="#ffffff" fill-opacity="1"><g transform="translate(81.25174, 214.702164)"><g><path d="M 4.90625 0 L 1.03125 0 L 1.03125 -9.234375 L 11.65625 -9.234375 L 11.65625 -6.953125 L 4.90625 -6.953125 L 4.90625 -5.5 L 10.609375 -5.5 L 10.609375 -3.734375 L 4.90625 -3.734375 Z M 4.90625 0 "/></g></g></g><g fill="#ffffff" fill-opacity="1"><g transform="translate(93.411808, 214.702164)"><g><path d="M 13.640625 0 L 9.984375 0 C 9.816406 -0.226562 9.695312 -0.523438 9.625 -0.890625 C 9.5625 -1.171875 9.46875 -1.441406 9.34375 -1.703125 C 9.226562 -1.972656 9.023438 -2.195312 8.734375 -2.375 C 8.441406 -2.550781 8.003906 -2.648438 7.421875 -2.671875 L 4.90625 -2.671875 L 4.90625 0 L 1.03125 0 L 1.03125 -9.234375 L 7.328125 -9.234375 C 8.835938 -9.234375 10.054688 -9.117188 10.984375 -8.890625 C 11.910156 -8.671875 12.582031 -8.316406 13 -7.828125 C 13.425781 -7.347656 13.640625 -6.722656 13.640625 -5.953125 C 13.640625 -5.304688 13.492188 -4.757812 13.203125 -4.3125 C 12.910156 -3.875 12.445312 -3.523438 11.8125 -3.265625 C 12.425781 -3.015625 12.820312 -2.710938 13 -2.359375 C 13.1875 -2.003906 13.300781 -1.613281 13.34375 -1.1875 C 13.382812 -0.8125 13.484375 -0.414062 13.640625 0 Z M 4.90625 -4.953125 L 7.125 -4.953125 C 7.738281 -4.953125 8.222656 -4.976562 8.578125 -5.03125 C 8.941406 -5.09375 9.207031 -5.171875 9.375 -5.265625 C 9.539062 -5.359375 9.644531 -5.460938 9.6875 -5.578125 C 9.738281 -5.703125 9.765625 -5.828125 9.765625 -5.953125 C 9.765625 -6.078125 9.738281 -6.195312 9.6875 -6.3125 C 9.644531 -6.4375 9.539062 -6.546875 9.375 -6.640625 C 9.207031 -6.734375 8.941406 -6.804688 8.578125 -6.859375 C 8.222656 -6.921875 7.738281 -6.953125 7.125 -6.953125 L 4.90625 -6.953125 Z M 4.90625 -4.953125 "/></g></g></g><g fill="#ffffff" fill-opacity="1"><g transform="translate(107.567439, 214.702164)"><g><path d="M 4.90625 0 L 1.03125 0 L 1.03125 -9.234375 L 4.90625 -9.234375 Z M 4.90625 0 "/></g></g></g><g fill="#ffffff" fill-opacity="1"><g transform="translate(113.502631, 214.702164)"><g><path d="M 6.984375 0.203125 C 4.703125 0.203125 3.019531 -0.265625 1.9375 -1.203125 C 0.988281 -2.035156 0.515625 -3.171875 0.515625 -4.609375 C 0.515625 -6.046875 0.988281 -7.179688 1.9375 -8.015625 C 3.019531 -8.953125 4.703125 -9.421875 6.984375 -9.421875 C 8.328125 -9.421875 9.4375 -9.265625 10.3125 -8.953125 C 11.1875 -8.648438 11.863281 -8.234375 12.34375 -7.703125 C 12.832031 -7.171875 13.15625 -6.5625 13.3125 -5.875 L 9.234375 -5.875 C 8.828125 -6.59375 8.078125 -6.953125 6.984375 -6.953125 C 6.046875 -6.953125 5.359375 -6.679688 4.921875 -6.140625 C 4.566406 -5.710938 4.390625 -5.203125 4.390625 -4.609375 C 4.390625 -4.023438 4.566406 -3.515625 4.921875 -3.078125 C 5.359375 -2.535156 6.046875 -2.265625 6.984375 -2.265625 C 8.078125 -2.265625 8.828125 -2.628906 9.234375 -3.359375 L 13.3125 -3.359375 C 13.15625 -2.660156 12.832031 -2.046875 12.34375 -1.515625 C 11.863281 -0.984375 11.1875 -0.5625 10.3125 -0.25 C 9.4375 0.0507812 8.328125 0.203125 6.984375 0.203125 Z M 6.984375 0.203125 "/></g></g></g><g fill="#ffffff" fill-opacity="1"><g transform="translate(127.329954, 214.702164)"><g><path d="M 15.515625 0 L 11.59375 0 L 10.71875 -1.515625 L 4.890625 -1.515625 L 4.03125 0 L 0.09375 0 L 6 -9.234375 L 9.609375 -9.234375 Z M 9.421875 -3.796875 L 7.8125 -6.59375 L 6.203125 -3.796875 Z M 9.421875 -3.796875 "/></g></g></g><g fill="#ffffff" fill-opacity="1"><g transform="translate(142.940416, 214.702164)"><g><path d="M 14.734375 0 L 10.125 0 L 4.90625 -6.25 L 4.90625 0 L 1.03125 0 L 1.03125 -9.234375 L 5.640625 -9.234375 L 10.859375 -3.015625 L 10.859375 -9.234375 L 14.734375 -9.234375 Z M 14.734375 0 "/></g></g></g><g fill="#ffffff" fill-opacity="1"><g transform="translate(158.705372, 214.702164)"><g/></g></g><g fill="#ffffff" fill-opacity="1"><g transform="translate(161.975521, 214.702164)"><g><path d="M 11.8125 0 L 1.03125 0 L 1.03125 -9.234375 L 4.90625 -9.234375 L 4.90625 -2.28125 L 11.8125 -2.28125 Z M 11.8125 0 "/></g></g></g><g fill="#ffffff" fill-opacity="1"><g transform="translate(174.045466, 214.702164)"><g><path d="M 12.15625 0 L 1.03125 0 L 1.03125 -9.234375 L 11.65625 -9.234375 L 11.65625 -6.953125 L 4.90625 -6.953125 L 4.90625 -5.5 L 10.609375 -5.5 L 10.609375 -3.734375 L 4.90625 -3.734375 L 4.90625 -2.28125 L 12.15625 -2.28125 Z M 12.15625 0 "/></g></g></g><g fill="#ffffff" fill-opacity="1"><g transform="translate(186.714075, 214.702164)"><g><path d="M 6.984375 0.203125 C 4.703125 0.203125 3.019531 -0.265625 1.9375 -1.203125 C 0.988281 -2.035156 0.515625 -3.171875 0.515625 -4.609375 C 0.515625 -6.046875 0.988281 -7.179688 1.9375 -8.015625 C 3.019531 -8.953125 4.703125 -9.421875 6.984375 -9.421875 C 8.285156 -9.421875 9.367188 -9.273438 10.234375 -8.984375 C 11.097656 -8.691406 11.773438 -8.289062 12.265625 -7.78125 C 12.753906 -7.28125 13.085938 -6.703125 13.265625 -6.046875 L 9.125 -6.046875 C 8.6875 -6.648438 7.972656 -6.953125 6.984375 -6.953125 C 6.046875 -6.953125 5.359375 -6.679688 4.921875 -6.140625 C 4.566406 -5.710938 4.390625 -5.203125 4.390625 -4.609375 C 4.390625 -4.023438 4.566406 -3.515625 4.921875 -3.078125 C 5.359375 -2.546875 6.046875 -2.28125 6.984375 -2.28125 C 7.742188 -2.28125 8.3125 -2.34375 8.6875 -2.46875 C 9.070312 -2.601562 9.351562 -2.773438 9.53125 -2.984375 L 8.015625 -2.984375 L 8.015625 -4.609375 L 13.265625 -4.609375 L 13.265625 0 L 11.65625 0 L 11.328125 -0.890625 C 10.304688 -0.160156 8.859375 0.203125 6.984375 0.203125 Z M 6.984375 0.203125 "/></g></g></g><g fill="#ffffff" fill-opacity="1"><g transform="translate(200.753834, 214.702164)"><g><path d="M 12.15625 0 L 1.03125 0 L 1.03125 -9.234375 L 11.65625 -9.234375 L 11.65625 -6.953125 L 4.90625 -6.953125 L 4.90625 -5.5 L 10.609375 -5.5 L 10.609375 -3.734375 L 4.90625 -3.734375 L 4.90625 -2.28125 L 12.15625 -2.28125 Z M 12.15625 0 "/></g></g></g><g fill="#ffffff" fill-opacity="1"><g transform="translate(213.422443, 214.702164)"><g><path d="M 14.734375 0 L 10.125 0 L 4.90625 -6.25 L 4.90625 0 L 1.03125 0 L 1.03125 -9.234375 L 5.640625 -9.234375 L 10.859375 -3.015625 L 10.859375 -9.234375 L 14.734375 -9.234375 Z M 14.734375 0 "/></g></g></g><g fill="#ffffff" fill-opacity="1"><g transform="translate(229.187399, 214.702164)"><g><path d="M 7.21875 0 L 1.03125 0 L 1.03125 -9.234375 L 7.21875 -9.234375 C 9.738281 -9.234375 11.554688 -8.878906 12.671875 -8.171875 C 13.554688 -7.609375 14.0625 -6.832031 14.1875 -5.84375 C 14.25 -5.414062 14.28125 -5.003906 14.28125 -4.609375 C 14.28125 -4.222656 14.25 -3.816406 14.1875 -3.390625 C 14.132812 -2.960938 13.992188 -2.546875 13.765625 -2.140625 C 13.535156 -1.742188 13.164062 -1.382812 12.65625 -1.0625 C 12.15625 -0.738281 11.460938 -0.476562 10.578125 -0.28125 C 9.703125 -0.09375 8.582031 0 7.21875 0 Z M 6.84375 -2.28125 C 8.8125 -2.28125 9.925781 -2.78125 10.1875 -3.78125 C 10.257812 -4.0625 10.296875 -4.335938 10.296875 -4.609375 C 10.296875 -4.898438 10.257812 -5.179688 10.1875 -5.453125 C 10.113281 -5.734375 9.960938 -5.984375 9.734375 -6.203125 C 9.503906 -6.429688 9.160156 -6.613281 8.703125 -6.75 C 8.242188 -6.882812 7.625 -6.953125 6.84375 -6.953125 L 4.90625 -6.953125 L 4.90625 -2.28125 Z M 6.84375 -2.28125 "/></g></g></g><g fill="#ffffff" fill-opacity="1"><g transform="translate(243.973886, 214.702164)"><g/></g></g><g fill="#ffffff" fill-opacity="1"><g transform="translate(247.244035, 214.702164)"><g><path d="M 4.90625 0 L 1.03125 0 L 1.03125 -9.234375 L 11.65625 -9.234375 L 11.65625 -6.953125 L 4.90625 -6.953125 L 4.90625 -5.5 L 10.609375 -5.5 L 10.609375 -3.734375 L 4.90625 -3.734375 Z M 4.90625 0 "/></g></g></g><g fill="#ffffff" fill-opacity="1"><g transform="translate(259.404114, 214.702164)"><g><path d="M 6.5 0.203125 C 4.238281 0.203125 2.648438 -0.265625 1.734375 -1.203125 C 0.960938 -1.984375 0.578125 -3.117188 0.578125 -4.609375 L 0.578125 -9.234375 L 4.453125 -9.234375 L 4.453125 -4.609375 C 4.453125 -3.960938 4.5625 -3.453125 4.78125 -3.078125 C 5.09375 -2.546875 5.664062 -2.28125 6.5 -2.28125 C 7.332031 -2.28125 7.90625 -2.546875 8.21875 -3.078125 C 8.4375 -3.460938 8.546875 -3.972656 8.546875 -4.609375 L 8.546875 -9.234375 L 12.421875 -9.234375 L 12.421875 -4.5625 C 12.421875 -3.101562 12.035156 -1.984375 11.265625 -1.203125 C 10.347656 -0.265625 8.757812 0.203125 6.5 0.203125 Z M 6.5 0.203125 "/></g></g></g><g fill="#ffffff" fill-opacity="1"><g transform="translate(272.401031, 214.702164)"><g><path d="M 12.15625 0 L 1.03125 0 L 1.03125 -9.234375 L 11.65625 -9.234375 L 11.65625 -6.953125 L 4.90625 -6.953125 L 4.90625 -5.5 L 10.609375 -5.5 L 10.609375 -3.734375 L 4.90625 -3.734375 L 4.90625 -2.28125 L 12.15625 -2.28125 Z M 12.15625 0 "/></g></g></g><g fill="#ffffff" fill-opacity="1"><g transform="translate(285.06964, 214.702164)"><g><path d="M 11.8125 0 L 1.03125 0 L 1.03125 -9.234375 L 4.90625 -9.234375 L 4.90625 -2.28125 L 11.8125 -2.28125 Z M 11.8125 0 "/></g></g></g><g fill="#ffffff" fill-opacity="1"><g transform="translate(297.139585, 214.702164)"><g><path d="M 6.109375 0.203125 C 4.859375 0.203125 3.847656 0.0664062 3.078125 -0.203125 C 2.316406 -0.472656 1.734375 -0.84375 1.328125 -1.3125 C 0.929688 -1.78125 0.664062 -2.320312 0.53125 -2.9375 L 4.65625 -2.9375 C 4.957031 -2.5 5.441406 -2.28125 6.109375 -2.28125 C 6.773438 -2.28125 7.257812 -2.5 7.5625 -2.9375 C 7.582031 -2.976562 7.59375 -3.015625 7.59375 -3.046875 C 7.59375 -3.160156 7.4375 -3.25 7.125 -3.3125 C 6.820312 -3.375 6.367188 -3.414062 5.765625 -3.4375 C 4.992188 -3.476562 4.1875 -3.5625 3.34375 -3.6875 C 1.457031 -3.976562 0.515625 -4.738281 0.515625 -5.96875 C 0.515625 -6.070312 0.519531 -6.179688 0.53125 -6.296875 C 0.664062 -6.910156 0.929688 -7.453125 1.328125 -7.921875 C 1.734375 -8.390625 2.316406 -8.753906 3.078125 -9.015625 C 3.847656 -9.285156 4.859375 -9.421875 6.109375 -9.421875 C 7.359375 -9.421875 8.363281 -9.285156 9.125 -9.015625 C 9.882812 -8.753906 10.460938 -8.390625 10.859375 -7.921875 C 11.265625 -7.453125 11.535156 -6.910156 11.671875 -6.296875 L 7.5625 -6.296875 C 7.257812 -6.734375 6.773438 -6.953125 6.109375 -6.953125 C 5.441406 -6.953125 4.957031 -6.734375 4.65625 -6.296875 C 4.625 -6.253906 4.609375 -6.21875 4.609375 -6.1875 C 4.609375 -6.09375 4.753906 -6.019531 5.046875 -5.96875 C 5.347656 -5.914062 5.785156 -5.867188 6.359375 -5.828125 C 6.929688 -5.796875 7.539062 -5.742188 8.1875 -5.671875 C 8.832031 -5.597656 9.4375 -5.460938 10 -5.265625 C 10.570312 -5.078125 11.015625 -4.796875 11.328125 -4.421875 C 11.578125 -4.140625 11.703125 -3.773438 11.703125 -3.328125 C 11.703125 -3.203125 11.691406 -3.070312 11.671875 -2.9375 C 11.535156 -2.320312 11.265625 -1.78125 10.859375 -1.3125 C 10.460938 -0.84375 9.882812 -0.472656 9.125 -0.203125 C 8.363281 0.0664062 7.359375 0.203125 6.109375 0.203125 Z M 6.109375 0.203125 "/></g></g></g></svg>